<?xml version="1.0" standalone="no"?><!DOCTYPE svg PUBLIC "-//W3C//DTD SVG 1.1//EN" "http://www.w3.org/Graphics/SVG/1.1/DTD/svg11.dtd"><svg class="icon" width="200px" height="200.00px" viewBox="0 0 1024 1024" version="1.1" xmlns="http://www.w3.org/2000/svg"><path fill="#8a8a8a" d="M758.67 923.95H265.33c-42.15 0-81.92-14.77-112-41.58-31.02-27.65-48.11-64.68-48.11-104.28V436.82c0-32.64 15.03-63.99 41.25-86.01l248.08-208.4 18.65 22.2-18.65-22.2c31.89-26.79 73.4-41.57 116.87-41.6h0.15c43.42 0 84.89 14.71 116.8 41.42L877.38 350.7c26.31 22.03 41.41 53.43 41.41 86.15v341.24c0 39.6-17.08 76.63-48.1 104.28-30.09 26.81-69.87 41.58-112.02 41.58zM511.56 158.8h-0.1c-29.86 0.02-58.13 9.97-79.61 28.01l-248.08 208.4c-13.06 10.97-20.55 26.14-20.55 41.6v341.27c0 48.45 45.81 87.86 102.11 87.86h493.35c56.3 0 102.11-39.41 102.11-87.86V436.85c0-15.5-7.52-30.69-20.64-41.67L591.12 186.7c-21.48-17.99-49.74-27.9-79.56-27.9z"  /><path fill="#8a8a8a" d="M641.5 824.14c-16.02 0-29-12.98-29-29V630c0-26.85-10.45-52.09-29.43-71.07-18.98-18.98-44.22-29.43-71.07-29.43-55.42 0-100.5 45.09-100.5 100.5v165.15c0 16.02-12.98 29-29 29s-29-12.98-29-29V630c0-87.4 71.1-158.5 158.5-158.5 42.34 0 82.15 16.48 112.08 46.42 29.93 29.93 46.42 69.74 46.42 112.09v165.15c0 16-12.98 28.98-29 28.98z"  /></svg>